<?xml version="1.0" encoding="utf-8"?>
<!-- Generator: Adobe Illustrator 21.0.2, SVG Export Plug-In . SVG Version: 6.00 Build 0)  -->
<svg version="1.1" id="Livello_1" xmlns="http://www.w3.org/2000/svg" xmlns:xlink="http://www.w3.org/1999/xlink" x="0px" y="0px"
	 viewBox="0 0 629 500.4" style="enable-background:new 0 0 629 500.4;" xml:space="preserve">
<style type="text/css">
	.st0{opacity:0.3;fill:#E2E2E2;enable-background:new    ;}
	.st1{opacity:0.3;fill:#73D7FF;enable-background:new    ;}
	.st2{opacity:0.32;fill:#73D7FF;enable-background:new    ;}
	.st3{fill:#003575;}
	.st4{fill:#BFDEFF;}
	.st5{fill:#FFFFFF;}
	.st6{fill:#1E3B6E;}
	.st7{fill:#80CBED;}
	.st8{fill:none;stroke:#295082;stroke-width:2;stroke-miterlimit:10;}
	.st9{fill:#73D7FF;}
</style>
<path class="st0" d="M6.1,485.6c0-169.7,137.5-307.2,307.2-307.2s307.2,137.5,307.2,307.2"/>
<path class="st1" d="M43.7,486.7c0-145,120.2-262.5,268.4-262.5s268.4,117.5,268.4,262.5"/>
<path class="st2" d="M98.1,484.8c0-119.8,96.3-216.9,215.2-216.9S528.5,365,528.5,484.8"/>
<path class="st3" d="M618.7,491.5H7.8c-1,0-1.8-0.8-1.8-1.8v-2.4c0-1,0.8-1.8,1.8-1.8h610.9c1,0,1.8,0.8,1.8,1.8v2.4
	C620.4,490.7,619.6,491.5,618.7,491.5z"/>
<g>
	<g>
		<path class="st4" d="M560.2,169.7l-4.9-8.5h-12.6v-32.1h70.5v32.1h-48L560.2,169.7z M546,157.8h11.2l3,5.1l3-5.1h46.6v-25.3H546
			V157.8z"/>
	</g>
	<g>
		<path class="st4" d="M557.1,143.6h-14.5v-14.5h14.5V143.6z M546,140.2h7.7v-7.7H546V140.2z"/>
	</g>
	<g>
		<rect x="563.1" y="137.2" class="st4" width="34.9" height="3.4"/>
	</g>
	<g>
		<rect x="563.1" y="142.6" class="st4" width="34.9" height="3.4"/>
	</g>
	<g>
		<rect x="563.1" y="147.9" class="st4" width="34.9" height="3.4"/>
	</g>
</g>
<g>
	<g>
		<path class="st4" d="M364.8,85.8l-1-0.1c-2.6-0.3-5.2-1-7.6-2.2l-1-0.5l0.2-4.1l-4,1.3l-0.7-0.7c-1.8-1.8-3.3-3.9-4.3-6.3l-0.5-1
			l3.1-3.4l-4.5-1.9l-0.1-1c0-0.5-0.1-1.1-0.1-1.6c0-1.9,0.3-3.8,0.8-5.6l0.3-1.1l5.2-0.6l-2.5-4.8l0.6-0.9c1.4-1.9,3.2-3.5,5.1-4.8
			l0.9-0.6l4.7,3l1.2-5.4l1.1-0.2c2.3-0.4,4.6-0.5,7-0.2l1.1,0.1l1.6,5.2l4.2-3.2l1,0.6c2.1,1.2,4,2.8,5.6,4.6L383,51l-1.9,4.6
			l4.8,0.2l0.4,1.1c0.9,2.4,1.3,4.8,1.3,7.4v1.1l-0.9,0.5l-3,1.5l3.1,2.8l-0.4,1c-0.9,2.5-2.1,4.8-3.8,6.8l-0.7,0.8L378,78l0.5,3.8
			l-0.9,0.6c-2.3,1.5-4.7,2.5-7.4,3l-1,0.2l-2.3-3L364.8,85.8z M358.8,80.9c1.4,0.6,2.9,1,4.4,1.3l3.5-5.6l3.9,5.2
			c1.5-0.4,2.9-1,4.3-1.7l-0.9-6.5l6.5,1.5c0.9-1.2,1.6-2.5,2.2-3.9l-5-4.6l6.4-3.3c-0.1-1.4-0.3-2.8-0.7-4.2l-7.4-0.3l3-7.1
			c-0.9-1-1.9-1.8-3-2.5l-6.3,4.8l-2.4-7.8c-1.3-0.1-2.5-0.1-3.8,0.1l-1.8,8l-6.8-4.4c-1,0.8-1.9,1.6-2.8,2.6l3.7,7.1l-7.7,1
			c-0.3,1.2-0.4,2.4-0.4,3.7c0,0.1,0,0.2,0,0.3l7,2.9l-4.9,5.3c0.7,1.3,1.5,2.5,2.5,3.5l6.7-2.1L358.8,80.9z"/>
	</g>
	<g>
		<path class="st4" d="M366,71.4c-4,0-7.2-3.2-7.2-7.2S362,57,366,57s7.2,3.2,7.2,7.2C373.1,68.2,369.9,71.4,366,71.4z M366,60.4
			c-2.1,0-3.8,1.7-3.8,3.8c0,2.1,1.7,3.8,3.8,3.8s3.8-1.7,3.8-3.8S368.1,60.4,366,60.4z"/>
	</g>
</g>
<g>
	<g>
		<g>
			<g>
				<g>
					<g>
						<g>
							<path class="st3" d="M317.6,138.9h-11.1c-0.9,0-1.7-0.8-1.7-1.7s0.8-1.7,1.7-1.7h11.1c0.9,0,1.7,0.8,1.7,1.7
								C319.3,138.1,318.6,138.9,317.6,138.9z"/>
						</g>
					</g>
				</g>
			</g>
		</g>
		<g>
			<g>
				<g>
					<g>
						<g>
							<path class="st3" d="M312.1,144.5c-0.9,0-1.7-0.8-1.7-1.7v-11.1c0-0.9,0.8-1.7,1.7-1.7c0.9,0,1.7,0.8,1.7,1.7v11.1
								C313.7,143.7,313,144.5,312.1,144.5z"/>
						</g>
					</g>
				</g>
			</g>
		</g>
	</g>
</g>
<g>
	<g>
		<g>
			<g>
				<g>
					<g>
						<g>
							<path class="st3" d="M178.6,182.8h-11.1c-0.9,0-1.7-0.8-1.7-1.7s0.8-1.7,1.7-1.7h11.1c0.9,0,1.7,0.8,1.7,1.7
								S179.5,182.8,178.6,182.8z"/>
						</g>
					</g>
				</g>
			</g>
		</g>
		<g>
			<g>
				<g>
					<g>
						<g>
							<path class="st3" d="M173,188.4c-0.9,0-1.7-0.8-1.7-1.7v-11.1c0-0.9,0.8-1.7,1.7-1.7s1.7,0.8,1.7,1.7v11.1
								C174.7,187.6,174,188.4,173,188.4z"/>
						</g>
					</g>
				</g>
			</g>
		</g>
	</g>
</g>
<g>
	<g>
		<g>
			<g>
				<g>
					<g>
						<g>
							<path class="st3" d="M155.6,366h-11.1c-0.9,0-1.7-0.8-1.7-1.7c0-0.9,0.8-1.7,1.7-1.7h11.1c0.9,0,1.7,0.8,1.7,1.7
								C157.3,365.4,156.5,366,155.6,366z"/>
						</g>
					</g>
				</g>
			</g>
		</g>
		<g>
			<g>
				<g>
					<g>
						<g>
							<path class="st3" d="M150,371.7c-0.9,0-1.7-0.8-1.7-1.7v-11.1c0-0.9,0.8-1.7,1.7-1.7s1.7,0.8,1.7,1.7V370
								C151.7,370.9,150.9,371.7,150,371.7z"/>
						</g>
					</g>
				</g>
			</g>
		</g>
	</g>
</g>
<g>
	<g>
		<g>
			<g>
				<g>
					<g>
						<g>
							<path class="st3" d="M528,292.6h-11.1c-0.9,0-1.7-0.8-1.7-1.7c0-0.9,0.8-1.7,1.7-1.7H528c0.9,0,1.7,0.8,1.7,1.7
								C529.7,291.8,528.9,292.6,528,292.6z"/>
						</g>
					</g>
				</g>
			</g>
		</g>
		<g>
			<g>
				<g>
					<g>
						<g>
							<path class="st3" d="M522.4,298.2c-0.9,0-1.7-0.8-1.7-1.7v-11.1c0-0.9,0.8-1.7,1.7-1.7s1.7,0.8,1.7,1.7v11.1
								C524.1,297.4,523.3,298.2,522.4,298.2z"/>
						</g>
					</g>
				</g>
			</g>
		</g>
	</g>
</g>
<g>
	<path class="st5" d="M216.8,255.7c-6.4,0-11.6-5.2-11.6-11.6s5.2-11.6,11.6-11.6s11.6,5.2,11.6,11.6S223.2,255.7,216.8,255.7z"/>
	<path class="st3" d="M216.8,233.5c5.8,0,10.6,4.8,10.6,10.6s-4.8,10.6-10.6,10.6s-10.6-4.8-10.6-10.6S211,233.5,216.8,233.5
		 M216.8,231.5c-7,0-12.6,5.6-12.6,12.6s5.6,12.6,12.6,12.6s12.6-5.6,12.6-12.6C229.4,237.1,223.8,231.5,216.8,231.5L216.8,231.5z"
		/>
</g>
<g>
	<path class="st5" d="M216.8,255.2c-6.1,0-11.1-5-11.1-11.1s5-11.1,11.1-11.1s11.1,5,11.1,11.1C227.9,250.2,222.9,255.2,216.8,255.2
		z"/>
	<path class="st3" d="M216.8,234.5c5.3,0,9.6,4.3,9.6,9.6s-4.3,9.6-9.6,9.6s-9.6-4.3-9.6-9.6S211.5,234.5,216.8,234.5 M216.8,231.5
		c-7,0-12.6,5.6-12.6,12.6s5.6,12.6,12.6,12.6s12.6-5.6,12.6-12.6S223.8,231.5,216.8,231.5L216.8,231.5z"/>
</g>
<g>
	<path class="st5" d="M492.5,444c-6.1,0-11.1-5-11.1-11.1s5-11.1,11.1-11.1s11.1,5,11.1,11.1S498.6,444,492.5,444z"/>
	<path class="st3" d="M492.5,423.2c5.3,0,9.6,4.3,9.6,9.6s-4.3,9.6-9.6,9.6s-9.6-4.3-9.6-9.6S487.2,423.2,492.5,423.2 M492.5,420.2
		c-7,0-12.6,5.6-12.6,12.6s5.6,12.6,12.6,12.6s12.6-5.6,12.6-12.6C505.1,425.9,499.4,420.2,492.5,420.2L492.5,420.2z"/>
</g>
<g>
	<path class="st5" d="M106.4,465.5c-6.1,0-11.1-5-11.1-11.1s5-11.1,11.1-11.1s11.1,5,11.1,11.1S112.6,465.5,106.4,465.5z"/>
	<path class="st3" d="M106.4,444.8c5.3,0,9.6,4.3,9.6,9.6s-4.3,9.6-9.6,9.6s-9.6-4.3-9.6-9.6S101.1,444.8,106.4,444.8 M106.4,441.8
		c-7,0-12.6,5.6-12.6,12.6s5.6,12.6,12.6,12.6s12.6-5.6,12.6-12.6S113.4,441.8,106.4,441.8L106.4,441.8z"/>
</g>
<g>
	<path class="st4" d="M102.9,88.3c-5.1,0-9.3-4.2-9.3-9.3c0-5.1,4.2-9.3,9.3-9.3c5.1,0,9.3,4.2,9.3,9.3
		C112.2,84.1,108,88.3,102.9,88.3z M102.9,73.1c-3.3,0-5.9,2.7-5.9,5.9c0,3.3,2.7,5.9,5.9,5.9c3.3,0,5.9-2.7,5.9-5.9
		C108.8,75.7,106.2,73.1,102.9,73.1z"/>
</g>
<g>
	<path class="st4" d="M59.9,287.2c-5.1,0-9.3-4.2-9.3-9.3c0-5.1,4.2-9.3,9.3-9.3s9.3,4.2,9.3,9.3C69.2,283.1,65,287.2,59.9,287.2z
		 M59.9,272c-3.3,0-5.9,2.7-5.9,5.9s2.7,5.9,5.9,5.9c3.3,0,5.9-2.7,5.9-5.9S63.2,272,59.9,272z"/>
</g>
<g>
	<path class="st4" d="M542.6,236c-5.1,0-9.3-4.2-9.3-9.3s4.2-9.3,9.3-9.3s9.3,4.2,9.3,9.3S547.7,236,542.6,236z M542.6,220.8
		c-3.3,0-5.9,2.7-5.9,5.9s2.7,5.9,5.9,5.9s5.9-2.7,5.9-5.9S545.9,220.8,542.6,220.8z"/>
</g>
<g>
	<g>
		<g>
			<g>
				<g>
					<g>
						<g>
							<path class="st3" d="M65.5,365.1H54.3c-0.9,0-1.7-0.8-1.7-1.7c0-0.9,0.8-1.7,1.7-1.7h11.1c0.9,0,1.7,0.8,1.7,1.7
								C67.2,364.3,66.4,365.1,65.5,365.1z"/>
						</g>
					</g>
				</g>
			</g>
		</g>
		<g>
			<g>
				<g>
					<g>
						<g>
							<path class="st3" d="M59.9,370.7c-0.9,0-1.7-0.8-1.7-1.7v-11.1c0-0.9,0.8-1.7,1.7-1.7s1.7,0.8,1.7,1.7V369
								C61.6,369.9,60.8,370.7,59.9,370.7z"/>
						</g>
					</g>
				</g>
			</g>
		</g>
	</g>
</g>
<g>
	<g>
		<polygon class="st6" points="108,189.7 87.1,169.5 95.1,161.4 97,163.3 90.9,169.4 107.8,185.8 113.1,179.1 115.1,180.6 		"/>
	</g>
	<g>
		<path class="st6" d="M72.4,190.9c-1,0-2-0.3-2.8-1c-1.4-1.2-2.4-3.5-1.3-5.9c0.6-1.3,3.8-4.8,5.5-6.3c5.2-4.9,6.6-5,7.1-5
			c1.8,0,5.1-0.4,6.4-0.6h0.3c0.3,0,0.8-0.5,1.2-0.9c0.5-0.6,1.3-0.6,1.8-0.2c0.6,0.5,0.6,1.3,0.2,1.8c-0.3,0.3-1.4,1.6-2.8,1.8
			h-0.3c-1.4,0.2-4.6,0.6-6.6,0.7c-1.8,0.4-9.6,8.4-10.3,9.7c-0.6,1.3,0.2,2.4,0.7,2.8c1.3,1.1,3-0.3,3.3-0.5c1.2-1,6.7-5.5,8-6.6
			c0.6-0.5,1.4-0.4,1.8,0.2c0.5,0.6,0.4,1.4-0.2,1.8c-1.3,1.1-6.9,5.6-8,6.6C75.1,190.4,73.7,190.9,72.4,190.9z"/>
	</g>
	<g>
		<path class="st6" d="M99.5,198.3c-0.3,0-0.8-0.2-1-0.4c-0.5-0.6-0.4-1.4,0.2-1.8c0.8-0.7,2.8-2.5,3.5-3.4c0.7-0.8,0.9-2.4,1.2-3.8
			c0.2-0.8,0.3-1.6,0.5-2.1c0.3-0.7,1.1-1,1.8-0.7c0.7,0.3,1,1.1,0.7,1.8c-0.1,0.3-0.3,0.9-0.3,1.5c-0.3,1.5-0.7,3.4-1.7,4.9
			c-1,1.3-3.6,3.6-3.8,3.8C100.2,198.2,99.8,198.3,99.5,198.3z"/>
	</g>
	<g>
		<path class="st6" d="M85.2,218.8c-1.4,0-2.9-0.4-4-1.3c-0.1,0-0.3-0.2-0.5-0.3c-0.5-0.3-0.8-0.5-1.1-0.7c-0.6-0.4-0.7-1.3-0.2-1.8
			c0.4-0.6,1.3-0.7,1.8-0.2c0.1,0.1,0.6,0.3,0.8,0.5c0.4,0.3,0.6,0.3,0.8,0.5c1.2,0.8,3.2,1,4.3,0.3c0.3-0.3,0.8-0.8,0.5-1.9
			c-0.2-0.5,0-1,0.3-1.3c0.3-0.3,0.8-0.4,1.3-0.3c1.6,0.6,2.1,0.4,2.6,0c0.6-0.5,1-1.6,0.7-2.1c-0.3-0.4-0.3-1,0.1-1.5
			c0.3-0.4,0.8-0.7,1.4-0.5c1.4,0.3,2-0.2,2.4-0.6l0.1-0.1c0.6-0.6,0.8-1.6,0.2-2.4l0,0c-0.4-0.6-0.3-1.4,0.2-1.8
			c0.3-0.3,0.8-0.3,1.2-0.3c0.2-0.1,0.3-0.3,0.4-0.4c0.3-0.3,0.5-0.9,0.4-1.3c-0.1-1-0.7-2.4-1.3-3.3c-0.9-1.1-10.6-8.9-16.5-13.7
			c-0.6-0.4-0.7-1.3-0.2-1.8c0.4-0.6,1.3-0.7,1.8-0.2c1.6,1.3,15.5,12.5,16.8,14.1c1.1,1.3,1.9,3.2,2,4.8c0.1,1.2-0.4,2.2-0.8,2.8
			c-0.2,0.3-0.6,0.8-1.2,1.3c0.3,1.5-0.1,3.2-1.3,4.3l-0.1,0.1c-0.4,0.4-1.3,1.3-2.9,1.3c-0.1,1.3-0.8,2.5-1.6,3.3
			c-1.1,1-2.3,1.2-3.3,1.1c-0.2,1.1-0.8,2.1-1.7,2.8C87.5,218.5,86.4,218.8,85.2,218.8z"/>
	</g>
	<g>
		<path class="st6" d="M88.1,214.7l-4.1-3.4c-0.6-0.5-0.7-1.3-0.2-1.8c0.5-0.6,1.3-0.7,1.8-0.2l4.1,3.4L88.1,214.7z"/>
	</g>
	<g>
		<path class="st7" d="M82.4,209.4c-0.3,0-0.6-0.1-0.8-0.3c0,0,0,0-0.1,0c-0.2-0.1-0.4-0.3-0.5-0.5c-0.3-0.6-0.3-1.3,0.3-1.7
			c0.6-0.5,1.3-0.4,2,0.2c0.6,0.5,0.7,1.3,0.2,1.8C83.2,209.3,82.8,209.4,82.4,209.4z"/>
	</g>
	<g>
		<path class="st6" d="M93.1,210.6l-5.1-4.2c-0.6-0.5-0.7-1.3-0.2-1.8c0.5-0.6,1.3-0.7,1.8-0.2l5.1,4.2L93.1,210.6z"/>
	</g>
	<g>
		<path class="st7" d="M86.4,204.8L86.4,204.8c-0.3,0-0.6-0.1-0.8-0.3l-0.2-0.1l0,0h-0.1l0,0c-0.7-0.6-0.5-1.3-0.4-1.5
			c0.2-0.5,0.7-0.8,1.3-0.8c0.3,0,0.6,0.2,0.8,0.3l0,0l0.1,0.1c0.3,0.3,0.6,0.7,0.6,1.1C87.8,204.2,87.2,204.8,86.4,204.8z"/>
	</g>
	<g>
		<path class="st6" d="M97.8,205.8c-0.3,0-0.6-0.1-0.8-0.3l-6.2-4.9c-0.6-0.4-0.7-1.3-0.3-1.8c0.4-0.6,1.3-0.7,1.8-0.3l6.2,4.9
			c0.6,0.4,0.7,1.3,0.3,1.8C98.6,205.7,98.2,205.8,97.8,205.8z"/>
	</g>
	<g>
		<polygon class="st6" points="55.2,194.7 47,189.4 48.4,187.3 54.5,191.2 67.8,173.9 61.4,168.5 63,166.5 71.5,173.5 		"/>
	</g>
	<g>
		<path class="st6" d="M74.3,179.6c-0.3,0-0.6-0.1-0.8-0.3c-0.8-0.6-3.5-1.1-5.7-1.3c-0.8-0.1-1.3-0.7-1.2-1.4s0.7-1.3,1.4-1.2
			c0.9,0.1,5.4,0.5,7.1,1.8c0.6,0.4,0.7,1.3,0.2,1.8C75.1,179.4,74.7,179.6,74.3,179.6z"/>
	</g>
	<g>
		<path class="st6" d="M58.6,194.3c-0.6,0-1.1-0.3-1.3-0.9l-1.2-3.4c-0.3-0.7,0.2-1.4,0.8-1.7c0.7-0.3,1.4,0.2,1.7,0.8l1.2,3.4
			c0.3,0.7-0.2,1.4-0.8,1.7C58.9,194.2,58.8,194.3,58.6,194.3z"/>
	</g>
	<g>
		<path class="st6" d="M75.3,218.2c-1.2,0-2.2-0.4-3-1.3c-0.8-0.8-1.3-1.8-1.3-3s0.4-2.2,1.3-3l1.7-1.7c0.8-0.8,1.8-1.3,3-1.3
			s2.3,0.4,3,1.3c0.8,0.8,1.3,1.8,1.3,3c0,1.2-0.4,2.2-1.3,3l-1.7,1.7C77.6,217.8,76.5,218.2,75.3,218.2z M77,210.6
			c-0.4,0-0.8,0.2-1.2,0.5l-1.7,1.7c-0.3,0.3-0.5,0.8-0.5,1.2c0,0.4,0.2,0.8,0.5,1.2c0.3,0.3,0.8,0.5,1.2,0.5c0.4,0,0.8-0.2,1.2-0.5
			l1.7-1.7c0.3-0.3,0.5-0.8,0.5-1.2s-0.2-0.8-0.5-1.2C77.8,210.8,77.4,210.6,77,210.6z"/>
	</g>
	<g>
		<path class="st6" d="M70.1,213.3c-1.2,0-2.2-0.4-3-1.3c-0.8-0.8-1.3-1.8-1.3-3c0-1.2,0.4-2.2,1.3-3l1.7-1.7c0.8-0.8,1.8-1.3,3-1.3
			s2.3,0.4,3,1.3c0.8,0.8,1.3,1.8,1.3,3c0,1.2-0.4,2.2-1.3,3l-1.7,1.7C72.4,212.8,71.3,213.3,70.1,213.3z M71.8,205.7
			c-0.4,0-0.8,0.2-1.2,0.5l-1.7,1.7c-0.3,0.3-0.5,0.8-0.5,1.2s0.2,0.8,0.5,1.2s0.8,0.5,1.2,0.5s0.8-0.2,1.2-0.5l1.7-1.7
			c0.3-0.3,0.5-0.8,0.5-1.2s-0.2-0.8-0.5-1.2C72.6,205.9,72.2,205.7,71.8,205.7z"/>
	</g>
	<g>
		<path class="st6" d="M65.7,208.8c-1.2,0-2.2-0.4-3-1.3s-1.3-1.8-1.3-3c0-1.2,0.4-2.2,1.3-3l1.7-1.7c0.8-0.8,1.8-1.3,3-1.3
			s2.3,0.4,3,1.3c0.8,0.8,1.3,1.8,1.3,3c0,1.2-0.4,2.2-1.3,3l-1.7,1.7C68,208.4,66.9,208.8,65.7,208.8z M67.4,201.3
			c-0.4,0-0.8,0.2-1.2,0.5l-1.7,1.7c-0.3,0.3-0.5,0.8-0.5,1.2s0.2,0.8,0.5,1.2s0.8,0.5,1.2,0.5c0.4,0,0.8-0.2,1.2-0.5l1.7-1.7
			c0.3-0.3,0.5-0.8,0.5-1.2c0-0.4-0.2-0.8-0.5-1.2C68.3,201.5,67.9,201.3,67.4,201.3z"/>
	</g>
	<g>
		<path class="st6" d="M61.1,203.9c-1.2,0-2.2-0.4-3-1.3s-1.3-1.8-1.3-3c0-1.2,0.4-2.2,1.3-3l1.7-1.7c0.8-0.8,1.8-1.3,3-1.3
			c1.2,0,2.3,0.4,3,1.3c0.8,0.8,1.3,1.8,1.3,3c0,1.2-0.4,2.2-1.3,3l-1.7,1.7C63.3,203.5,62.2,203.9,61.1,203.9z M62.8,196.4
			c-0.4,0-0.8,0.2-1.2,0.5l-1.7,1.7c-0.3,0.3-0.5,0.8-0.5,1.2s0.2,0.8,0.5,1.2c0.3,0.3,0.8,0.5,1.2,0.5c0.4,0,0.8-0.2,1.2-0.5
			l1.7-1.7c0.3-0.3,0.5-0.8,0.5-1.2s-0.2-0.8-0.5-1.2C63.6,196.5,63.2,196.4,62.8,196.4z"/>
	</g>
</g>
<path class="st8" d="M275.2,324.5"/>
<g>
	<g>
		<path class="st5" d="M549.3,347.1h17.4c0.7,4.9,4.8,8.2,9.7,8.9c0,9.3,0,20,0,24.9c0,13.3-23.7,24.7-27.1,24.7
			c-3.4,0-27.1-11.4-27.1-24.7c0-4.8,0-15.6,0-24.9c4.9-0.7,9-3.9,9.7-8.9H549.3z"/>
		<path class="st6" d="M549.3,406.8c-4.1,0-28.4-12.1-28.4-26v-25.9l1.1-0.1c4.7-0.7,8.1-3.7,8.6-7.8l0.1-1.1h37l0.1,1.1
			c0.6,4.1,4,7.2,8.6,7.8l1.1,0.1v25.9C577.7,394.7,553.5,406.8,549.3,406.8z M523.4,357v23.8c0,12.4,23.2,23.5,25.9,23.5
			s25.9-11.1,25.9-23.5V357c-4.9-1-8.4-4.3-9.5-8.7h-32.8C531.9,352.7,528.3,356,523.4,357z"/>
	</g>
	<g>
		<path class="st7" d="M568.8,405.6l-1.4-2c10.1-7.2,15.2-14.8,15.2-22.7v-11.5h2.5v11.5C585.1,389.6,579.6,397.9,568.8,405.6z"/>
	</g>
	<g>
		<rect x="558" y="339.7" class="st7" width="9.9" height="2.5"/>
	</g>
	<g>
		<rect x="530.8" y="339.7" class="st7" width="9.9" height="2.5"/>
	</g>
	<g>
		<path class="st7" d="M529.8,405.6c-10.8-7.7-16.3-16-16.3-24.7v-11.5h2.5v11.5c0,7.9,5.1,15.5,15.2,22.7L529.8,405.6z"/>
	</g>
	<g>
		<path class="st6" d="M548.2,394c-10.6,0-19.3-8.6-19.3-19.3s8.6-19.3,19.3-19.3c2.4,0,4.7,0.4,6.9,1.3l-0.9,2.3
			c-1.9-0.7-3.9-1.1-6-1.1c-9.3,0-16.8,7.5-16.8,16.8s7.5,16.8,16.8,16.8S565,384,565,374.7h2.5C567.4,385.4,558.8,394,548.2,394z"
			/>
	</g>
	<g>
		<polygon class="st9" points="565.6,356.8 549.3,373.1 542.5,366.3 537.1,371.7 549.3,383.9 571,362.3 		"/>
		<path class="st6" d="M549.3,385.7l-13.9-13.9l7.2-7.2l6.8,6.8l16.3-16.3l7.2,7.2L549.3,385.7z M538.9,371.7l10.4,10.4l19.9-19.9
			l-3.7-3.7l-16.3,16.3l-6.8-6.8L538.9,371.7z"/>
	</g>
	<g>
		<rect x="582.6" y="354.5" class="st7" width="2.5" height="2.5"/>
	</g>
	<g>
		<rect x="582.6" y="359.5" class="st7" width="2.5" height="2.5"/>
	</g>
	<g>
		<rect x="582.6" y="364.4" class="st7" width="2.5" height="2.5"/>
	</g>
	<g>
		<rect x="513.6" y="354.5" class="st7" width="2.5" height="2.5"/>
	</g>
	<g>
		<rect x="513.6" y="359.5" class="st7" width="2.5" height="2.5"/>
	</g>
	<g>
		<rect x="513.6" y="364.4" class="st7" width="2.5" height="2.5"/>
	</g>
	<g>
		<rect x="548.1" y="339.7" class="st7" width="2.5" height="2.5"/>
	</g>
	<g>
		<rect x="543.2" y="339.7" class="st7" width="2.5" height="2.5"/>
	</g>
	<g>
		<rect x="553" y="339.7" class="st7" width="2.5" height="2.5"/>
	</g>
</g>
<path class="st8" d="M302.6,377.4"/>
<g>
	<polygon class="st9" points="399.4,225.1 455.8,225.1 455.8,264 444.3,264 444.3,279.4 428.4,265.5 399.4,264.8 	"/>
	<polygon class="st5" points="427.1,217.8 427.1,224.9 400.7,224.9 397.4,228.3 397.4,233.8 381.5,246.8 381.5,233.7 370.5,233.7 
		370.5,193.5 427.1,193.5 	"/>
	<g>
		<path class="st3" d="M453,222.6h-51.7c-2.6,0-4.8,2.2-4.8,4.8v4.4c0,0.3-0.1,0.5-0.3,0.7l-11.5,9.6c-0.2,0.1-0.4,0.2-0.6,0.2
			c-0.1,0-0.3,0-0.4-0.1c-0.3-0.2-0.5-0.5-0.5-0.9v-8.2c0-1.1-0.9-1.9-1.9-1.9h-8.6c-0.5,0-0.9-0.4-0.9-0.9v-34.4
			c0-0.5,0.4-0.9,0.9-0.9h51.7c0.5,0,0.9,0.4,0.9,0.9v20.1c0,1.1,0.9,1.9,1.9,1.9c1.1,0,1.9-0.9,1.9-1.9v-20.1
			c0-2.6-2.2-4.8-4.8-4.8h-51.7c-2.6,0-4.8,2.2-4.8,4.8v34.4c0,2.6,2.2,4.8,4.8,4.8h5.7c0.5,0,0.9,0.4,0.9,0.9v11.5
			c0,0.7,0.4,1.4,1.1,1.7c0.3,0.1,0.5,0.2,0.8,0.2c0.5,0,0.9-0.2,1.2-0.4l12.5-10.4c0.2-0.1,0.4-0.2,0.6-0.2c0.1,0,0.3,0,0.4,0.1
			c0.3,0.2,0.5,0.5,0.5,0.9v22.6c0,2.6,2.2,4.8,4.8,4.8h24.8c0.2,0,0.4,0.1,0.6,0.2l16.4,13.7c0.3,0.3,0.8,0.4,1.2,0.4
			c0.3,0,0.6-0.1,0.8-0.2c0.7-0.3,1.1-1,1.1-1.7v-11.5c0-0.5,0.4-0.9,0.9-0.9h5.7c2.6,0,4.8-2.2,4.8-4.8v-34.4
			C457.8,224.7,455.6,222.6,453,222.6z M453.9,261.8c0,0.5-0.4,0.9-0.9,0.9h-8.6c-1.1,0-1.9,0.9-1.9,1.9v8.2c0,0.4-0.2,0.7-0.5,0.9
			c-0.1,0.1-0.3,0.1-0.4,0.1c-0.2,0-0.4-0.1-0.6-0.2l-12.5-10.4c-0.3-0.3-0.8-0.4-1.2-0.4h-25.8c-0.5,0-0.9-0.4-0.9-0.9v-34.4
			c0-0.5,0.4-0.9,0.9-0.9H453c0.5,0,0.9,0.4,0.9,0.9V261.8z"/>
		<path class="st3" d="M441.5,236.9h-28.7c-1.1,0-1.9,0.9-1.9,1.9c0,1.1,0.9,1.9,1.9,1.9h28.7c1.1,0,1.9-0.9,1.9-1.9
			C443.4,237.8,442.5,236.9,441.5,236.9z"/>
		<path class="st3" d="M441.5,248.4h-28.7c-1.1,0-1.9,0.9-1.9,1.9c0,1.1,0.9,1.9,1.9,1.9h28.7c1.1,0,1.9-0.9,1.9-1.9
			C443.4,249.3,442.5,248.4,441.5,248.4z"/>
		<path class="st3" d="M414.7,207.3c0-1.1-0.9-1.9-1.9-1.9h-28.7c-1.1,0-1.9,0.9-1.9,1.9c0,1.1,0.9,1.9,1.9,1.9h28.7
			C413.8,209.2,414.7,208.4,414.7,207.3z"/>
		<path class="st3" d="M384.1,216.9c-1.1,0-1.9,0.9-1.9,1.9s0.9,1.9,1.9,1.9h8.6c1.1,0,1.9-0.9,1.9-1.9s-0.9-1.9-1.9-1.9H384.1z"/>
	</g>
</g>
<g>
	<g>
		<g>
			<polygon class="st9" points="189.7,96.8 175.1,111.4 180.6,116.9 195.3,102.2 			"/>
		</g>
	</g>
	<g>
		<g>
			<polygon class="st5" points="192.9,84.9 200.3,77.6 214.7,91.9 207.8,98.9 			"/>
		</g>
	</g>
	<g>
		<g>
			<polygon class="st9" points="215.7,92.4 211.4,96 207.8,101.7 210.2,112 219.4,116.6 225.5,115.1 217.8,107.3 223.1,102.1 
				231,110 233.1,102.4 227.2,94.1 218.4,92 			"/>
		</g>
	</g>
	<g>
		<g>
			<polygon class="st9" points="196.8,81.1 200.8,74.8 199.2,66.7 193.9,61.7 187.5,60 184.3,61.2 190.1,68.8 185.8,74.7 178,68.5 
				176.2,70.9 178.4,80 184.9,84.6 193.9,84.1 			"/>
		</g>
	</g>
	<g>
		<g>
			<polygon class="st9" points="221.7,67.4 228.7,60.5 232,63.8 224.9,70.9 			"/>
		</g>
	</g>
	<g>
		<g>
			<g>
				<g>
					<path class="st3" d="M220.5,117.9c-3.8,0-7.4-1.5-10-4c-2.7-2.7-4.2-6.2-4.2-9.9c0-1.2,0.1-2.3,0.4-3.5c0.1-0.2,0-0.4-0.2-0.6
						l-5.7-5.7c-0.1-0.1-0.3-0.2-0.4-0.2h0c-0.2,0-0.3,0.1-0.4,0.2l-4.9,4.9c-0.2,0.2-0.2,0.6,0,0.9l4.3,4.3
						c0.2,0.2,0.4,0.6,0.4,0.9c0,0.3-0.1,0.7-0.4,0.9c-0.2,0.2-0.6,0.4-0.9,0.4c-0.3,0-0.7-0.1-0.9-0.4l-1.2-1.2
						c-0.1-0.1-0.3-0.2-0.4-0.2s-0.3,0.1-0.4,0.2l-11.8,11.8c-0.7,0.7-1.7,1.1-2.7,1.1c-1.1,0-2.1-0.4-2.9-1.2l-2.4-2.4
						c-1.6-1.6-1.6-4.1-0.1-5.6l11.8-11.8c0.2-0.2,0.2-0.6,0-0.9l-1.2-1.2c-0.2-0.2-0.4-0.6-0.4-0.9c0-0.3,0.1-0.7,0.4-0.9
						c0.2-0.2,0.6-0.4,0.9-0.4c0.3,0,0.7,0.1,0.9,0.4l4.3,4.3c0.1,0.1,0.3,0.2,0.4,0.2h0c0.2,0,0.3-0.1,0.4-0.2l4.9-4.9
						c0.2-0.2,0.2-0.6,0-0.9l-5.7-5.7c-0.1-0.1-0.3-0.2-0.4-0.2c0,0-0.1,0-0.1,0c-1.1,0.3-2.2,0.4-3.2,0.4c0,0,0,0,0,0
						c-0.1,0-0.2,0-0.3,0c-3.7-0.1-7.2-1.6-9.9-4.2c-3.9-3.9-5.1-10.2-2.9-15.6c0.2-0.4,0.5-0.7,0.9-0.8c0.1,0,0.2,0,0.2,0
						c0.3,0,0.7,0.1,0.9,0.4l7.1,7.1c0.1,0.1,0.3,0.2,0.4,0.2c0.2,0,0.3-0.1,0.4-0.2l3.2-3.2c0.2-0.2,0.2-0.6,0-0.9l-7.1-7.1
						c-0.3-0.3-0.4-0.7-0.3-1.1c0.1-0.4,0.4-0.8,0.8-0.9c1.8-0.7,3.7-1.1,5.7-1.1c3.8,0,7.4,1.5,10,4c3.6,3.6,5,8.8,3.8,13.6
						c-0.1,0.2,0,0.4,0.2,0.6l5.6,5.6c0.1,0.1,0.3,0.2,0.4,0.2c0.2,0,0.3-0.1,0.4-0.2l12.6-12.6c0.2-0.2,0.2-0.6,0-0.9l-0.5-0.5
						c-0.5-0.5-0.5-1.3,0-1.8l7.6-7.6c0.2-0.2,0.6-0.4,0.9-0.4c0.3,0,0.7,0.1,0.9,0.4l3.8,3.8c0.5,0.5,0.5,1.3,0,1.8l-7.6,7.6
						c-0.2,0.2-0.6,0.4-0.9,0.4c-0.3,0-0.7-0.1-0.9-0.4l-0.6-0.6c-0.1-0.1-0.3-0.2-0.4-0.2s-0.3,0.1-0.4,0.2l-12.6,12.6
						c-0.2,0.2-0.2,0.6,0,0.9l5.6,5.6c0.1,0.1,0.3,0.2,0.4,0.2c0.1,0,0.1,0,0.2,0c1.1-0.3,2.3-0.4,3.4-0.4c3.8,0,7.4,1.5,10.1,4.2
						c3.9,3.9,5.1,10.2,2.9,15.6c-0.2,0.4-0.5,0.7-0.9,0.8c-0.1,0-0.2,0-0.2,0c-0.3,0-0.7-0.1-0.9-0.4l-7.1-7.1
						c-0.1-0.1-0.3-0.2-0.4-0.2c-0.2,0-0.3,0.1-0.4,0.2l-3.2,3.2c-0.2,0.2-0.2,0.6,0,0.9l7.1,7.1c0.3,0.3,0.4,0.7,0.3,1.1
						c-0.1,0.4-0.4,0.8-0.8,0.9C224.4,117.5,222.4,117.9,220.5,117.9z M189.7,98.6c-0.2,0-0.3,0.1-0.4,0.2l-11.8,11.8
						c-0.3,0.3-0.4,0.6-0.3,1c0,0.4,0.2,0.7,0.5,1l2.4,2.4c0.3,0.3,0.7,0.5,1.1,0.5c0.3,0,0.7-0.1,0.9-0.4l11.8-11.8
						c0.2-0.2,0.2-0.6,0-0.9l-3.6-3.6C190.1,98.6,189.9,98.6,189.7,98.6z M219.7,92.9c-2.9,0-5.7,1.1-7.7,3.2
						c-2.1,2.1-3.2,4.9-3.2,7.9c0.1,3,1.3,5.9,3.5,8.1c2,2,5,3.2,8.2,3.2c0.5,0,1.1,0,1.6-0.1c0.2,0,0.4-0.2,0.5-0.4
						c0.1-0.2,0-0.5-0.1-0.6l-5-5c-0.5-0.5-0.8-1.2-0.9-2c0-0.8,0.3-1.5,0.8-2l3.7-3.7c0.5-0.5,1.2-0.8,1.9-0.8l0.1,0
						c0.8,0,1.5,0.3,2,0.9l5,5c0.1,0.1,0.3,0.2,0.4,0.2c0.1,0,0.1,0,0.2,0c0.2-0.1,0.4-0.3,0.4-0.5c0.5-3.7-0.7-7.4-3.1-9.8
						C225.8,94.2,222.8,92.9,219.7,92.9z M200.7,79.5C200.7,79.5,200.6,79.5,200.7,79.5c-0.3,0-0.4,0.1-0.5,0.3
						c-0.6,0.9-1.2,1.8-1.9,2.5c-0.8,0.8-1.6,1.4-2.6,2c-0.2,0.1-0.3,0.3-0.3,0.5c0,0.2,0,0.4,0.2,0.5L207.2,97
						c0.1,0.1,0.3,0.2,0.4,0.2c0,0,0.1,0,0.1,0c0.2,0,0.4-0.1,0.5-0.3c0.6-1,1.3-1.9,2-2.6c0.7-0.7,1.6-1.4,2.5-1.9
						c0.2-0.1,0.3-0.3,0.3-0.5c0-0.2,0-0.4-0.2-0.5l-11.7-11.7C201,79.6,200.9,79.5,200.7,79.5z M177.9,69.8c-0.1,0-0.1,0-0.2,0
						c-0.2,0.1-0.4,0.3-0.4,0.5c-0.5,3.7,0.7,7.4,3.1,9.8c2.2,2.2,5.1,3.4,8.1,3.5c0.1,0,0.2,0,0.3,0c2.9,0,5.6-1.1,7.6-3.2
						c2.1-2.1,3.2-4.9,3.2-8c-0.1-3-1.3-5.9-3.5-8.1c-2-2-5-3.2-8.2-3.2c-0.5,0-1.1,0-1.6,0.1c-0.2,0-0.4,0.2-0.5,0.4
						c-0.1,0.2,0,0.5,0.1,0.6l5,5c1.1,1.1,1.1,2.9,0,4l-3.7,3.7c-0.5,0.5-1.2,0.8-2,0.8c-0.8,0-1.5-0.3-2.1-0.9l-5-5
						C178.2,69.9,178,69.8,177.9,69.8z M224.5,69.1c0.1,0.1,0.3,0.2,0.4,0.2c0.2,0,0.3-0.1,0.4-0.2l4.9-4.9c0.1-0.1,0.2-0.3,0.2-0.4
						c0-0.2-0.1-0.3-0.2-0.4l-1.1-1.1c-0.1-0.1-0.3-0.2-0.4-0.2s-0.3,0.1-0.4,0.2l-4.9,4.9c-0.1,0.1-0.2,0.3-0.2,0.4
						s0.1,0.3,0.2,0.4l0.5,0.5L224.5,69.1z"/>
				</g>
			</g>
		</g>
	</g>
</g>
<g>
	<circle class="st5" cx="469.6" cy="128.6" r="2.7"/>
	<polygon class="st9" points="484.9,125.5 463.4,125.5 459.7,125.5 446.4,136 446.4,125.5 438.8,125.5 438.8,90.1 484.9,90.1 	"/>
	<polygon class="st5" points="466.5,121.1 466.5,115.8 472.7,107.9 472.7,104 470.8,102.5 466.5,102.5 464.8,104.1 464.8,106.9 
		458.4,106.9 458.4,102.9 463.6,96.6 470.6,96 477,98.9 479.1,103.7 479.1,109.6 473.6,116.4 472.4,118.8 472.4,121.1 	"/>
	<g>
		<path class="st3" d="M483.6,88.7h-43.5c-1.4,0-2.6,1.2-2.6,2.6V124c0,1.4,1.2,2.6,2.6,2.6h4.7c0.3,0,0.5,0.2,0.5,0.5v9.3
			c0,0.4,0.2,0.8,0.6,0.9c0.1,0.1,0.3,0.1,0.5,0.1c0.2,0,0.5-0.1,0.6-0.2l13.6-10.6c0.1-0.1,0.2-0.1,0.3-0.1h2.6c0.6,0,1-0.5,1-1
			c0-0.6-0.5-1-1-1h-3.1c-0.2,0-0.5,0.1-0.6,0.2l-11.5,8.9c-0.1,0.1-0.2,0.1-0.3,0.1c-0.1,0-0.2,0-0.2-0.1c-0.2-0.1-0.3-0.3-0.3-0.5
			v-7.7c0-0.6-0.5-1-1-1h-6.2c-0.3,0-0.5-0.2-0.5-0.5V91.3c0-0.3,0.2-0.5,0.5-0.5h43.5c0.3,0,0.5,0.2,0.5,0.5V124
			c0,0.3-0.2,0.5-0.5,0.5h-7.8c-0.6,0-1,0.5-1,1c0,0.6,0.5,1,1,1h7.8c1.4,0,2.6-1.2,2.6-2.6V91.3C486.2,89.9,485.1,88.7,483.6,88.7z
			"/>
		<path class="st3" d="M476.3,114.7c1.7-1.6,3.7-3.6,3.7-7.8l0-1c0,0,0,0,0,0c0.1-3.2-0.8-5.8-2.6-7.7c-2-2.1-4.9-3.1-8.4-3.1h-0.3
			c-3.6,0-6.5,1.1-8.4,3.1c-1.8,1.9-2.7,4.6-2.6,7.7v1.1c0,0.6,0.5,1,1,1h6.2c0.6,0,1-0.5,1-1v-1.3c0-1.5,0.9-2.3,2.5-2.3h0.6
			c1.7,0,2.5,0.8,2.5,2.3l0,1.3c0,0.7-0.7,1.5-1.8,2.7c-1.9,2-4.4,4.8-4.4,9.7v1.6c0,0.6,0.5,1,1,1h6.2c0.6,0,1-0.5,1-1v-1.6
			C473.8,117.2,474.9,116.1,476.3,114.7z M474.8,113.2c-1.5,1.5-3.1,3.1-3.1,6.1c0,0.3-0.2,0.5-0.5,0.5h-3.1c-0.3,0-0.5-0.2-0.5-0.5
			c0-4.1,2.1-6.3,3.9-8.3c1.3-1.4,2.4-2.6,2.4-4.1l0-1.3c0-2.7-1.8-4.4-4.6-4.4h-0.6c-2.8,0-4.5,1.6-4.6,4.2c0,0.3-0.2,0.5-0.5,0.5
			h-3.1c-0.3,0-0.5-0.2-0.5-0.5c0-2.4,0.6-4.4,2-5.8c1.6-1.6,4-2.5,6.9-2.5h0.3c3,0,5.4,0.9,6.9,2.5c1.4,1.5,2.1,3.6,2,6.2
			c0,0,0,0,0,0.1l0,1.1C477.9,110.2,476.4,111.6,474.8,113.2z"/>
		<path class="st3" d="M469.6,124.5c-2.3,0-4.2,1.9-4.2,4.2c0,2.3,1.9,4.2,4.2,4.2c2.3,0,4.2-1.9,4.2-4.2
			C473.8,126.4,471.9,124.5,469.6,124.5z M469.6,130.7c-1.1,0-2.1-0.9-2.1-2.1c0-1.1,0.9-2.1,2.1-2.1c1.1,0,2.1,0.9,2.1,2.1
			C471.7,129.8,470.8,130.7,469.6,130.7z"/>
		<path class="st3" d="M458.8,112.1h-12.4c-0.6,0-1,0.5-1,1c0,0.6,0.5,1,1,1h12.4c0.6,0,1-0.5,1-1
			C459.8,112.5,459.3,112.1,458.8,112.1z"/>
		<path class="st3" d="M446.3,107.9h7.8c0.6,0,1-0.5,1-1c0-0.6-0.5-1-1-1h-7.8c-0.6,0-1,0.5-1,1
			C445.3,107.5,445.8,107.9,446.3,107.9z"/>
		<path class="st3" d="M446.3,101.7h7.8c0.6,0,1-0.5,1-1s-0.5-1-1-1h-7.8c-0.6,0-1,0.5-1,1S445.8,101.7,446.3,101.7z"/>
		<path class="st3" d="M458.8,118.3h-12.4c-0.6,0-1,0.5-1,1c0,0.6,0.5,1,1,1h12.4c0.6,0,1-0.5,1-1
			C459.8,118.7,459.3,118.3,458.8,118.3z"/>
	</g>
</g>
<g>
	<g>
		<g>
			<polygon class="st9" points="348.1,355.7 345.4,396.6 372.7,396.6 380.5,378 375.8,359 			"/>
		</g>
	</g>
	<g>
		<g>
			<polygon class="st9" points="254.8,355.7 257.5,396.6 232.5,396.6 224.6,378 229.4,359 			"/>
		</g>
	</g>
	<g>
		<g>
			<g>
				<path class="st3" d="M262,367.1 M261.3,366.3c-0.1-4,0.2-7.8,0.7-11.4c0.3-2.6-0.3-4.3-2.8-4.6l-6.5,0.1l-5.7,0.1
					c-1.3,0-2.3-1-2.3-2.3c0-19.8,4.7-34.1,14.3-43.7c9.6-9.6,23.9-14.3,43.7-14.3c19.8,0,34.1,4.7,43.7,14.3
					c9.6,9.6,14.3,23.9,14.3,43.7c0,1.3-1,2.3-2.3,2.3h-2.9l-8.2,0l0,0l0,0H347v0c-0.1,0-0.3,0-0.5,0c-2.6,0.3-4.4,2.6-4.1,5.2
					c0.4,3.6,0.7,7.4,0.7,11.4c0,9.7-1.5,19.3-4.5,28.3c-0.4,1.2-0.3,2.4,0.3,3.6c0.6,1.1,1.5,1.9,2.7,2.3c0.4,0.1,0.8,0.2,1.2,0.2
					v0h0.1l0.1,0l0,0h1.8h1.5h12c1.3,0,2.3,1,2.3,2.3c0,5.1-4.1,9.2-9.2,9.2h-27.8c-1.3,0-2.3-1-2.3-2.3v-7c0-2.6-2.1-4.7-4.7-4.7
					c-2.6,0-4.7,2.1-4.7,4.7v13.9c0,2.6,2.1,4.7,4.7,4.7h34.8c10.3,0,18.6-8.3,18.6-18.6v-1.3c0-1,0.6-1.8,1.5-2.1
					c7.4-2.6,12.4-9.6,12.4-17.4v-13.9c0-7.9-5.1-14.9-12.6-17.5c-0.6-0.2-1-0.6-1.3-1.2v-2.2c0-22-5.7-38.9-17.1-50.2
					c-11.3-11.3-28.2-17-50.2-17c-22,0-38.9,5.7-50.2,17c-11.3,11.3-17.1,28.2-17.1,50.2v2.3c-0.3,0.5-0.7,0.9-1.3,1.1
					c-7.5,2.6-12.6,9.6-12.6,17.5V383c0,10.2,8.3,18.6,18.6,18.6h8.6h5.3l1.4-0.1h1.8l0,0l0.1,0h4.6v0c0.4,0,0.8-0.1,1.2-0.2
					c1.2-0.4,2.2-1.2,2.7-2.3c0.6-1.1,0.7-2.4,0.3-3.6C266,395.4,263,389.4,261.3,366.3z M250.6,359.9c0.6,0,1.2,0.3,1.7,0.7
					c0.4,0.5,0.7,1.1,0.6,1.7l0,0.6c-0.1,1.5-0.1,2.8-0.1,4.3c0,7.5,0.9,15,2.5,22.3c0.2,0.7,0,1.4-0.4,1.9
					c-0.4,0.5-1.1,0.9-1.8,0.9h-13c-5.1,0-9.2-4.1-9.2-9.2v-13.9c0-5.1,4.1-9.2,9.2-9.2H250.6z M374.5,383c0,5.1-4.1,9.2-9.2,9.2
					h-13.1c-0.7,0-1.4-0.3-1.8-0.9c-0.4-0.5-0.6-1.3-0.4-1.9c1.7-7.4,2.6-14.9,2.6-22.3c0-1.6-0.1-3.3-0.1-4.9
					c0-0.6,0.2-1.2,0.6-1.7c0.4-0.5,1-0.7,1.6-0.7h10.6c5.1,0,9.2,4.1,9.2,9.2V383z"/>
			</g>
		</g>
	</g>
</g>
</svg>
