<svg xmlns="http://www.w3.org/2000/svg" width="256" height="256"><path fill-opacity=".102" d="M0 128.004v128.004l128.25-.254 128.25-.254.254-127.75L257.008 0H0v128.004m.485.496c0 70.4.119 99.053.265 63.672.146-35.38.146-92.98 0-128C.604 29.153.485 58.1.485 128.5" fill="#1976D2" fill-rule="evenodd"/><path fill-opacity=".166" d="M1.1 110.25c.061 66.549.453 108.757.988 106.484 2.19-9.294 8.832-17.554 17.454-21.705 5.789-2.787 17.466-3.368 23.722-1.181 13.449 4.703 22.889 21.718 19.754 35.606-1.373 6.084-3.953 11.704-5.059 11.021-.451-.279-1.146.019-1.544.663-.452.731-.291.903.43.457 2.393-1.478 1.025 1.139-2.259 4.321-1.877 1.82-3.913 3-4.524 2.622-.631-.39-.993-.114-.837.638.152.732-.502 1.263-1.464 1.187-.957-.075-1.503.245-1.215.712 1.007 1.629-10.637 4.195-16.588 3.655-13.643-1.237-23.921-10.051-27.591-23.659-1.133-4.202-1.237-3.382-1.3 10.179L1 256h253V0H1l.1 110.25M207.868 4.265c-11.295 5.847-17.65 17.403-16.621 30.224.94 11.706 6.683 20.321 16.975 25.464C213.429 62.555 215.441 63 222 63c6.571 0 8.567-.443 13.821-3.068C246.612 54.539 253 44.153 253 32c0-12.153-6.388-22.539-17.179-27.932C230.553 1.436 228.58 1 221.928 1c-6.8 0-8.529.401-14.06 3.265m40.214 41.538c-1.338 3.229-5.117 7.578-9.582 11.028-3.825 2.955-1.066 1.662 3.228-1.512 3.177-2.35 8.979-10.946 8.028-11.896-.268-.268-1.021.803-1.674 2.38M120.41 97.093c-6.684 1.571-14.563 6.901-18.169 12.289-9.346 13.967-7.602 30.604 4.355 41.532 6.159 5.628 12.348 8.088 20.332 8.08 7.149-.007 11.503-1.247 17.315-4.933 5.155-3.269 11.117-10.682 10.301-12.808-.287-.746-.101-1.097.413-.779 2.918 1.803 4.008-16.285 1.437-23.831-2.142-6.286-10.039-14.817-16.124-17.419-5.847-2.5-14.392-3.417-19.86-2.131m95.403.59c.721.289 1.584.253 1.916-.079.332-.332-.258-.568-1.312-.525-1.165.048-1.402.285-.604.604m-9.563 3.306c-4.515 2.753-4.093 3.426.5.797 4.62-2.645 4.806-2.787 3.667-2.782-.505.002-2.38.895-4.167 1.985m-6.378 4.761c-1.243 1.586-1.208 1.621.378.378.963-.755 1.75-1.543 1.75-1.75 0-.823-.821-.294-2.128 1.372m-2.594 3.5c-1.499 1.938-2.442 3.75-1.952 3.75.244 0 1.181-1.125 2.082-2.5 1.686-2.573 1.592-3.476-.13-1.25m-5.199 11.333c.048 1.165.285 1.402.604.605.289-.722.253-1.585-.079-1.917-.332-.332-.568.258-.525 1.312m-.884 6.917c.02 1.65.244 2.204.498 1.231.254-.973.237-2.323-.037-3-.274-.677-.481.119-.461 1.769m-42.238 20.75c-1.857 2.338-2.587 3.615-1.62 2.839 1.82-1.462 6.105-7.089 5.398-7.089-.22 0-1.92 1.912-3.778 4.25m-6.516 5.305c-1.864 1.494-1.852 1.512.309.465 1.238-.6 2.25-1.3 2.25-1.555 0-.765-.519-.544-2.559 1.09M116.5 194.464c-3.862 1.768-2.066 1.794 2.5.036 1.925-.741 2.825-1.362 2-1.379-.825-.017-2.85.587-4.5 1.343m-7.628 4.286c-1.243 1.586-1.208 1.621.378.378 1.666-1.307 2.195-2.128 1.372-2.128-.207 0-.995.787-1.75 1.75m-5.105 4.5c-3.04 3.999-5.774 9.211-5.745 10.95.012.715.891-.615 1.954-2.956s3.131-5.829 4.597-7.75c1.465-1.922 2.439-3.494 2.164-3.494-.275 0-1.611 1.463-2.97 3.25m-6.688 14.333c.048 1.165.285 1.402.604.605.289-.722.253-1.585-.079-1.917-.332-.332-.568.258-.525 1.312M52.924 245.75L50.5 248.5l2.75-2.424c2.57-2.266 3.209-3.076 2.424-3.076-.179 0-1.416 1.238-2.75 2.75" fill="#1976D2" fill-rule="evenodd"/><path fill-opacity=".215" d="M1.102 109.75c.057 60.363.438 108.347.847 106.633 1.426-5.973 5.249-12.387 9.738-16.338 15.739-13.855 39.778-9.053 49.033 9.794 3.761 7.659 3.918 19.002.373 26.931-2.958 6.614-11.295 14.429-17.736 16.624-5.998 2.044-15.675 2.058-21.623.031-8.602-2.931-16.853-12.036-19.372-21.376-1.13-4.191-1.232-3.428-1.295 9.701L1 256h253l-.11-111.25c-.06-61.187-.474-109.408-.921-107.157-2.031 10.244-9.189 19.468-18.255 23.524-6.976 3.121-18.138 3.207-24.836.19-6.294-2.834-12.494-8.656-15.701-14.744-2.347-4.454-2.668-6.205-2.669-14.563-.002-7.943.367-10.192 2.251-13.722 4.865-9.117 11.052-14.197 20.322-16.69C218.92.287 207.814.125 110.25.066L1 0l.102 109.75M230.049 1.362c11.709 3.158 20.482 12.744 22.92 25.045.573 2.887.844-.398.921-11.157L254 0l-14.25.067c-13.129.063-13.892.165-9.701 1.295M117.332 97.786c-13.947 4.996-22.269 17.957-21.075 32.828.923 11.496 7.023 20.429 17.458 25.566 5.677 2.795 7.673 3.262 13.714 3.206 8.777-.08 14.645-2.504 21.431-8.852 6.731-6.296 9.507-12.849 9.567-22.582.08-12.948-6.577-23.512-18.284-29.015-6.331-2.976-16.31-3.479-22.811-1.151m96.619-.483c-22.948 6.488-30.664 35.984-13.82 52.828 5.987 5.987 11.152 8.16 20.369 8.571 6.673.298 8.912-.031 13.5-1.982 3.025-1.287 5.393-2.859 5.262-3.494-.131-.635.394-.911 1.167-.615 2.029.779 9.05-8.528 11.107-14.72 3.796-11.427.2-25.379-8.586-33.317-7.865-7.106-19.377-9.992-28.999-7.271m-96.619 96.487c-21.578 7.712-28.161 34.111-12.758 51.16 13.953 15.444 39.771 12.327 49.926-6.028 2.772-5.01 3-6.183 3-15.422 0-8.509-.342-10.64-2.291-14.291-7.348-13.761-23.789-20.454-37.877-15.419m97.481-.107c.721.289 1.584.253 1.916-.079.332-.332-.258-.568-1.312-.525-1.165.048-1.402.285-.604.604m-5.563 1.348c-3.349 1.346-2.723 2.03.75.819 1.65-.575 3-1.227 3-1.448 0-.593-1.217-.389-3.75.629m-6.861 4.444c-1.712 1.349-3.874 3.707-4.806 5.239l-1.694 2.786 2.437-2.868c1.341-1.578 3.728-3.924 5.306-5.214 3.818-3.123 2.727-3.073-1.243.057m-7.93 9.592c-.363.586-.445 1.281-.183 1.543s.743-.218 1.069-1.067c.676-1.762.1-2.072-.886-.476m-2.38 7.516c.048 1.165.285 1.402.604.605.289-.722.253-1.585-.079-1.917-.332-.332-.568.258-.525 1.312m-.847 6.417c0 1.925.206 2.713.457 1.75.252-.963.252-2.537 0-3.5-.251-.963-.457-.175-.457 1.75" fill="#1976D2" fill-rule="evenodd"/><path fill-opacity=".666" d="M1.086 108.75c.047 59.813.429 107.625.849 106.25 2.79-9.138 11.524-18.605 19.749-21.408 7.21-2.457 17.73-2.078 24.053.866 7.107 3.309 13.627 10.237 16.299 17.321 2.827 7.496 2.423 19.563-.869 25.943-4.502 8.723-11.472 14.584-20.118 16.916-3.783 1.021 2.772 1.228 38.951 1.233 42.215.007 43.346-.043 38.289-1.682-10.368-3.36-18.777-11.861-21.412-21.645-1.669-6.201-.71-17.273 1.974-22.773C104.197 198.814 115.128 192 127.359 192c9.307 0 15.077 2.368 21.722 8.914 18.177 17.908 9.871 48.182-14.815 53.998-2.371.558 12.908.884 41.234.878 27.155-.006 43.304-.343 40.723-.852-20.557-4.051-31.683-27.395-22.054-46.269 8.975-17.592 33.244-22.131 48.717-9.111 3.923 3.301 8.126 10.36 9.747 16.371 1.028 3.814 1.238-2.713 1.267-39.429.034-43.583.018-43.951-1.762-38.8-3.247 9.398-7.635 14.356-17.169 19.4-3.628 1.921-5.974 2.364-12.469 2.357-10.452-.01-16.684-2.69-23.436-10.077-18.146-19.855-5.529-51.667 21.102-53.21 15.204-.881 27.663 8.013 32.383 23.116 1.135 3.632 1.321-1.728 1.343-38.786.024-41.707-.027-42.859-1.684-38.297-3.619 9.963-12.082 18.278-21.173 20.804-15.031 4.176-31.172-3.415-37.819-17.787-3.473-7.509-3.689-18.348-.506-25.396C196.546 11.331 205.253 3.606 214 .935c1.375-.42-45.987-.802-105.25-.849L1 0l.086 108.75M232 1.55c9.297 2.914 18.745 13.144 21.041 22.783.468 1.965.793-2.052.857-10.583L254 0l-13.25.07c-12.911.068-13.135.105-8.75 1.48M116 97.683c-2.843 1.039-6.738 3.884-10.579 7.73-7.225 7.235-9.421 12.601-9.42 23.015.002 23.287 24.428 38.425 45.425 28.152 23.217-11.359 23.299-45.467.137-57.328-6.506-3.332-18.687-4.08-25.563-1.569m137 131.139c0 4.155-3.465 11.479-7.614 16.094-4.787 5.324-10.606 8.648-17.518 10.006-3.281.645-.574.886 10.882.968L254 256v-14.5c0-7.975-.225-14.5-.5-14.5s-.5.82-.5 1.822M1.047 243.25L1 256l13.75-.102c8.167-.061 12.507-.4 10.688-.836-9.496-2.273-18.849-10.498-22.467-19.758L1.094 230.5l-.047 12.75" fill="#1976D2" fill-rule="evenodd"/></svg>