<svg xmlns="http://www.w3.org/2000/svg" width="44.5" height="30.302" viewBox="0 0 44.5 30.302">
  <g id="Raggruppa_875" data-name="Raggruppa 875" transform="translate(-333.719 -206.326)">
    <g id="Raggruppa_1153" data-name="Raggruppa 1153" transform="translate(334.402 212.96)">
      <rect id="Rettangolo_2624" data-name="Rettangolo 2624" width="11.631" height="22.49" fill="#73d7ff"/>
    </g>
    <g id="Raggruppa_1154" data-name="Raggruppa 1154" transform="translate(366.197 212.96)">
      <rect id="Rettangolo_2625" data-name="Rettangolo 2625" width="11.631" height="22.49" fill="#73d7ff"/>
    </g>
    <g id="Raggruppa_1155" data-name="Raggruppa 1155" transform="translate(345.428 207.005)">
      <rect id="Rettangolo_2626" data-name="Rettangolo 2626" width="21.132" height="28.445" fill="#fff"/>
    </g>
    <g id="Raggruppa_1173" data-name="Raggruppa 1173" transform="translate(333.719 206.326)">
      <g id="Raggruppa_1156" data-name="Raggruppa 1156">
        <path id="Tracciato_2465" data-name="Tracciato 2465" d="M354.549,206.326H346.03a.955.955,0,0,0-.954.954v4.26a.466.466,0,0,1-.466.465h-9.938a.955.955,0,0,0-.954.954v22.716a.955.955,0,0,0,.954.954h42.592a.956.956,0,0,0,.955-.954V212.959a.956.956,0,0,0-.955-.954h-9.938a.466.466,0,0,1-.466-.465v-4.26a.955.955,0,0,0-.954-.954H354.549Zm-9.472,27.929a.466.466,0,0,1-.466.466h-8.519a.465.465,0,0,1-.465-.466V214.378a.466.466,0,0,1,.465-.466h8.519a.466.466,0,0,1,.466.466Zm19.876,0a.466.466,0,0,1-.466.466h-1.419a.466.466,0,0,1-.466-.466V230a.954.954,0,0,0-1.907,0v4.259a.466.466,0,0,1-.466.466h-8.519a.466.466,0,0,1-.466-.466V230a.954.954,0,0,0-1.907,0v4.259a.465.465,0,0,1-.465.466h-1.42a.466.466,0,0,1-.466-.466V208.7a.466.466,0,0,1,.466-.466h17.036a.466.466,0,0,1,.466.466Zm11.358,0a.466.466,0,0,1-.465.466h-8.519a.466.466,0,0,1-.466-.466V214.378a.467.467,0,0,1,.466-.466h8.519a.466.466,0,0,1,.465.466Z" transform="translate(-333.719 -206.326)" fill="#003575"/>
      </g>
      <g id="Raggruppa_1157" data-name="Raggruppa 1157" transform="translate(15.617 11.359)">
        <rect id="Rettangolo_2627" data-name="Rettangolo 2627" width="1.908" height="1.908" fill="#003575"/>
      </g>
      <g id="Raggruppa_1158" data-name="Raggruppa 1158" transform="translate(5.679 11.359)">
        <rect id="Rettangolo_2628" data-name="Rettangolo 2628" width="1.908" height="1.908" fill="#003575"/>
      </g>
      <g id="Raggruppa_1159" data-name="Raggruppa 1159" transform="translate(5.679 17.038)">
        <rect id="Rettangolo_2629" data-name="Rettangolo 2629" width="1.908" height="1.908" fill="#003575"/>
      </g>
      <g id="Raggruppa_1160" data-name="Raggruppa 1160" transform="translate(5.679 22.717)">
        <rect id="Rettangolo_2630" data-name="Rettangolo 2630" width="1.908" height="1.908" fill="#003575"/>
      </g>
      <g id="Raggruppa_1161" data-name="Raggruppa 1161" transform="translate(36.913 11.359)">
        <rect id="Rettangolo_2631" data-name="Rettangolo 2631" width="1.908" height="1.908" fill="#003575"/>
      </g>
      <g id="Raggruppa_1162" data-name="Raggruppa 1162" transform="translate(36.913 17.038)">
        <rect id="Rettangolo_2632" data-name="Rettangolo 2632" width="1.908" height="1.908" fill="#003575"/>
      </g>
      <g id="Raggruppa_1163" data-name="Raggruppa 1163" transform="translate(36.913 22.717)">
        <rect id="Rettangolo_2633" data-name="Rettangolo 2633" width="1.908" height="1.908" fill="#003575"/>
      </g>
      <g id="Raggruppa_1164" data-name="Raggruppa 1164" transform="translate(21.296 11.359)">
        <rect id="Rettangolo_2634" data-name="Rettangolo 2634" width="1.908" height="1.908" fill="#003575"/>
      </g>
      <g id="Raggruppa_1165" data-name="Raggruppa 1165" transform="translate(26.975 11.359)">
        <rect id="Rettangolo_2635" data-name="Rettangolo 2635" width="1.908" height="1.908" fill="#003575"/>
      </g>
      <g id="Raggruppa_1166" data-name="Raggruppa 1166" transform="translate(15.617 17.038)">
        <rect id="Rettangolo_2636" data-name="Rettangolo 2636" width="1.908" height="1.908" fill="#003575"/>
      </g>
      <g id="Raggruppa_1167" data-name="Raggruppa 1167" transform="translate(21.296 17.038)">
        <rect id="Rettangolo_2637" data-name="Rettangolo 2637" width="1.908" height="1.908" fill="#003575"/>
      </g>
      <g id="Raggruppa_1168" data-name="Raggruppa 1168" transform="translate(21.296 22.717)">
        <rect id="Rettangolo_2638" data-name="Rettangolo 2638" width="1.908" height="1.908" fill="#003575"/>
      </g>
      <g id="Raggruppa_1169" data-name="Raggruppa 1169" transform="translate(26.975 17.038)">
        <rect id="Rettangolo_2639" data-name="Rettangolo 2639" width="1.908" height="1.908" fill="#003575"/>
      </g>
      <g id="Raggruppa_1170" data-name="Raggruppa 1170" transform="translate(15.617 5.68)">
        <rect id="Rettangolo_2640" data-name="Rettangolo 2640" width="1.908" height="1.908" fill="#003575"/>
      </g>
      <g id="Raggruppa_1171" data-name="Raggruppa 1171" transform="translate(21.296 5.68)">
        <rect id="Rettangolo_2641" data-name="Rettangolo 2641" width="1.908" height="1.908" fill="#003575"/>
      </g>
      <g id="Raggruppa_1172" data-name="Raggruppa 1172" transform="translate(26.975 5.68)">
        <rect id="Rettangolo_2642" data-name="Rettangolo 2642" width="1.908" height="1.908" fill="#003575"/>
      </g>
    </g>
  </g>
</svg>
