<svg xmlns="http://www.w3.org/2000/svg" width="35.377" height="35.378" viewBox="0 0 35.377 35.378"><defs><style>.a{fill:#73d7ff;}.b{fill:#fff;}.c{fill:#003575;}</style></defs><g transform="translate(-287.5 -246.49)"><g transform="translate(288.672 247.335)"><path class="a" d="M288.958,281.221v-33.68l19.922,7.814v25.865Z" transform="translate(-288.958 -247.541)"/></g><g transform="translate(312.838 259.797)"><path class="b" d="M319.013,265.536l1.965-2.495h5.628l1.34,2.68v11.033l-2.233,1.965h-4.467l-1.965-2.638Z" transform="translate(-319.013 -263.041)"/></g><g transform="translate(287.5 246.49)"><g transform="translate(15.802 20.317)"><rect class="c" width="1.517" height="1.516" rx="0.2"/></g><g transform="translate(10.158 20.317)"><rect class="c" width="1.517" height="1.516" rx="0.2"/></g><g transform="translate(4.515 20.317)"><rect class="c" width="1.516" height="1.516" rx="0.2"/></g><g transform="translate(15.802 24.832)"><rect class="c" width="1.517" height="1.517" rx="0.2"/></g><g transform="translate(10.158 24.832)"><rect class="c" width="1.517" height="1.517" rx="0.2"/></g><g transform="translate(10.158 29.346)"><rect class="c" width="1.517" height="1.517" rx="0.2"/></g><g transform="translate(4.515 24.832)"><rect class="c" width="1.516" height="1.517" rx="0.2"/></g><g transform="translate(15.802 11.287)"><rect class="c" width="1.517" height="1.516" rx="0.2"/></g><g transform="translate(10.158 11.287)"><rect class="c" width="1.517" height="1.516" rx="0.2"/></g><g transform="translate(4.515 11.287)"><rect class="c" width="1.516" height="1.516" rx="0.2"/></g><g transform="translate(4.515 6.773)"><rect class="c" width="1.516" height="1.516" rx="0.2"/></g><g transform="translate(15.802 15.802)"><rect class="c" width="1.517" height="1.516" rx="0.2"/></g><g transform="translate(10.158 15.802)"><rect class="c" width="1.517" height="1.516" rx="0.2"/></g><g transform="translate(4.515 15.802)"><rect class="c" width="1.516" height="1.516" rx="0.2"/></g><path class="c" d="M288.258,281.868a.76.76,0,0,1-.758-.758V247.249a.759.759,0,0,1,.76-.759.733.733,0,0,1,.272.052l20.318,7.9a.753.753,0,0,1,.483.706v24.832a.371.371,0,0,0,.371.37h6.772a.371.371,0,0,0,.371-.37v-3.387a.371.371,0,0,0-.371-.37,4.15,4.15,0,0,1-4.145-4.145v-9.029a4.15,4.15,0,0,1,4.145-4.145h2.257a4.149,4.149,0,0,1,4.145,4.145v9.029a4.149,4.149,0,0,1-4.145,4.145.37.37,0,0,0-.37.37v3.387a.37.37,0,0,0,.37.37h3.387a.759.759,0,0,1,0,1.517Zm15.8-6.032a.759.759,0,0,1,.758.758v3.387a.37.37,0,0,0,.371.37h2.257a.37.37,0,0,0,.371-.37v-24.06a.371.371,0,0,0-.236-.346l-18.058-7.022a.371.371,0,0,0-.134-.025.363.363,0,0,0-.209.065.369.369,0,0,0-.162.306v31.082a.37.37,0,0,0,.371.37h2.257a.37.37,0,0,0,.371-.37v-3.387a.758.758,0,0,1,1.516,0v3.387a.37.37,0,0,0,.371.37h9.029a.37.37,0,0,0,.371-.37v-3.387A.759.759,0,0,1,304.06,275.836Zm13.545-9.029a.759.759,0,0,1,.758.758v6.772a.37.37,0,0,0,.37.37,2.631,2.631,0,0,0,2.628-2.628v-9.029a2.631,2.631,0,0,0-2.628-2.628h-2.257a2.631,2.631,0,0,0-2.628,2.628v9.029a2.631,2.631,0,0,0,2.628,2.628.371.371,0,0,0,.371-.37v-6.772A.759.759,0,0,1,317.6,266.807Z" transform="translate(-287.5 -246.49)"/></g></g></svg>