<svg xmlns="http://www.w3.org/2000/svg" width="26.022" height="38.103" viewBox="0 0 26.022 38.103"><defs><style>.a{fill:#73d7ff;}.b{fill:#003575;}</style></defs><g transform="translate(-53.509 -129.571)"><g transform="translate(54.802 130.837)"><path class="a" d="M77.786,139.126H69.279v-8.507H63.087v8.507H54.579v6.192h8.507v20.589h6.192V145.318h8.507Z" transform="translate(-54.579 -130.619)"/></g><g transform="translate(53.509 129.571)"><path class="b" d="M63.128,167.674a1.141,1.141,0,0,1-1.139-1.139V147.669a.556.556,0,0,0-.557-.556H54.648a1.141,1.141,0,0,1-1.139-1.139V139.19a1.141,1.141,0,0,1,1.139-1.139h6.784a.557.557,0,0,0,.557-.557V130.71a1.141,1.141,0,0,1,1.139-1.139h6.784a1.141,1.141,0,0,1,1.139,1.139v6.784a.557.557,0,0,0,.557.557h6.784a1.141,1.141,0,0,1,1.139,1.139v6.784a1.141,1.141,0,0,1-1.139,1.139H71.608a.556.556,0,0,0-.557.556v18.866a1.141,1.141,0,0,1-1.139,1.139Zm-6.784-27.345a.556.556,0,0,0-.557.556v3.392a.557.557,0,0,0,.557.557h6.784a1.141,1.141,0,0,1,1.139,1.139v18.865a.557.557,0,0,0,.557.557h3.391a.558.558,0,0,0,.557-.557V145.974a1.141,1.141,0,0,1,1.139-1.139H76.7a.558.558,0,0,0,.557-.557v-3.392a.557.557,0,0,0-.557-.556H69.912a1.141,1.141,0,0,1-1.139-1.139v-6.784a.557.557,0,0,0-.557-.557H64.824a.556.556,0,0,0-.557.557v6.784a1.141,1.141,0,0,1-1.139,1.139Z" transform="translate(-53.509 -129.571)"/></g></g></svg>