<svg xmlns="http://www.w3.org/2000/svg" width="43.426" height="43.426" viewBox="0 0 43.426 43.426"><defs><style>.a{fill:#73d7ff;}.b{fill:#fff;}.c{fill:#003575;}</style></defs><g transform="translate(-38.992 -189.001)"><g transform="translate(38.992 189.001)"><circle class="a" cx="18.049" cy="18.049" r="18.049" transform="translate(0 35.132) rotate(-76.718)"/></g><g transform="translate(64.614 201.1)"><path class="b" d="M74.273,207.281c0,2.314-1.218,4.189-2.721,4.189s-2.72-1.875-2.72-4.189,1.218-4.189,2.72-4.189S74.273,204.968,74.273,207.281Z" transform="translate(-68.832 -203.092)"/></g><g transform="translate(51.355 201.1)"><path class="b" d="M58.831,207.281c0,2.314-1.218,4.189-2.721,4.189s-2.72-1.875-2.72-4.189,1.218-4.189,2.72-4.189S58.831,204.968,58.831,207.281Z" transform="translate(-53.39 -203.092)"/></g><g transform="translate(41.814 191.823)"><path class="c" d="M61.169,230.069a18.89,18.89,0,1,1,18.89-18.89A18.911,18.911,0,0,1,61.169,230.069Zm0-36.161A17.271,17.271,0,1,0,78.44,211.178,17.29,17.29,0,0,0,61.169,193.907Z" transform="translate(-42.279 -192.288)"/><g transform="translate(8.438 8.438)"><path class="c" d="M55.929,212.171c-2.143,0-3.823-2.208-3.823-5.028s1.68-5.028,3.823-5.028,3.824,2.208,3.824,5.028S58.073,212.171,55.929,212.171Zm0-8.437c-1.064,0-2.2,1.37-2.2,3.409s1.139,3.409,2.2,3.409,2.2-1.37,2.2-3.409S56.993,203.734,55.929,203.734Z" transform="translate(-52.106 -202.115)"/></g><g transform="translate(21.697 8.438)"><path class="c" d="M71.371,212.171c-2.144,0-3.823-2.208-3.823-5.028s1.679-5.028,3.823-5.028,3.824,2.208,3.824,5.028S73.515,212.171,71.371,212.171Zm0-8.437c-1.064,0-2.2,1.37-2.2,3.409s1.139,3.409,2.2,3.409,2.2-1.37,2.2-3.409S72.435,203.734,71.371,203.734Z" transform="translate(-67.548 -202.115)"/></g><g transform="translate(12.054 25.314)"><path class="c" d="M63.153,227a7.752,7.752,0,0,1-6.734-4.03.81.81,0,0,1,1.416-.787,6.022,6.022,0,0,0,10.638,0,.812.812,0,0,1,.708-.415.82.82,0,0,1,.395.1.812.812,0,0,1,.313,1.1A7.756,7.756,0,0,1,63.153,227Z" transform="translate(-56.317 -221.769)"/></g></g></g></svg>