<svg xmlns="http://www.w3.org/2000/svg" width="34.004" height="34" viewBox="0 0 34.004 34"><defs><style>.a{fill:#73d7ff;}.b{fill:#003575;}</style></defs><g transform="translate(-141.497 -246.49)"><path class="a" d="M166.642,253.989v-3.966h3.928v9.53l4.057,4.83h-3.992v15.326h-23.5V264.576h-4.25l15.068-16.936h2.306Z" transform="translate(-0.314 -0.261)"/><g transform="translate(141.497 246.49)"><path class="b" d="M147.65,280.49a1.816,1.816,0,0,1-1.814-1.814V265.658a.356.356,0,0,0-.356-.356h-3.255a.729.729,0,0,1-.552-1.2l14.235-16.547a.8.8,0,0,1,.055-.059,3.712,3.712,0,0,1,5.074,0,.664.664,0,0,1,.055.058l3.644,4.311a.356.356,0,0,0,.628-.229v-1.164a1.8,1.8,0,0,1,1.8-1.8h2.2a1.8,1.8,0,0,1,1.8,1.8v8.3a.355.355,0,0,0,.078.223l4.1,5.126a.73.73,0,0,1-.57,1.185h-3.255a.356.356,0,0,0-.355.356v13.019a1.816,1.816,0,0,1-1.814,1.814ZM158.5,247.946a2.232,2.232,0,0,0-1.493.569.332.332,0,0,0-.032.033l-12.651,14.707a.357.357,0,0,0,.27.589h1.975a.729.729,0,0,1,.729.729v14.1a.356.356,0,0,0,.356.356h21.7a.356.356,0,0,0,.356-.356v-14.1a.729.729,0,0,1,.729-.729h2.083a.356.356,0,0,0,.277-.579l-2.929-3.661a.735.735,0,0,1-.159-.456v-8.679a.356.356,0,0,0-.356-.356l-2.189.017a.356.356,0,0,0-.353.358l.016,4.111a.731.731,0,0,1-.478.683.706.706,0,0,1-.25.045.724.724,0,0,1-.556-.259l-5.513-6.52a.262.262,0,0,0-.036-.036A2.248,2.248,0,0,0,158.5,247.946Z" transform="translate(-141.497 -246.49)"/></g></g></svg>