<svg xmlns="http://www.w3.org/2000/svg" width="37" height="37" viewBox="0 0 37 37"><defs><style>.a{fill:#fff;}.b{fill:#73d7ff;}.c{fill:#003575;}</style></defs><g transform="translate(-68.677 -100.676)"><g transform="translate(69.879 102.043)"><g transform="translate(0)"><path class="a" d="M85.837,136.349H74.942V120.8H70.107l14.937-18.5h4.089l6.552,6.552V104.3h4.87V114.71L104.689,120H100.66v16.353Z" transform="translate(-70.107 -102.302)"/></g></g><g transform="translate(82.686 112.134)"><g transform="translate(0)"><rect class="b" width="9.25" height="9.25"/></g></g><g transform="translate(85.13 126.508)"><rect class="b" width="8.83" height="10.196"/></g><g transform="translate(68.677 100.676)"><path class="c" d="M105.5,119.859l-4.464-5.579a.386.386,0,0,1-.085-.242v-9.031A1.957,1.957,0,0,0,99,103.051H96.6a1.957,1.957,0,0,0-1.955,1.955v1.267a.386.386,0,0,1-.254.363.39.39,0,0,1-.134.024.384.384,0,0,1-.3-.137L90,101.831a.731.731,0,0,0-.06-.063,4.038,4.038,0,0,0-5.521,0q-.032.03-.061.063l-15.49,18.009a.792.792,0,0,0,.6,1.31h3.541a.388.388,0,0,1,.388.388V135.7a1.975,1.975,0,0,0,1.974,1.974h23.61a1.975,1.975,0,0,0,1.974-1.974V121.535a.388.388,0,0,1,.388-.388h3.541a.793.793,0,0,0,.62-1.288ZM93.467,135.7a.387.387,0,0,1-.388.388H86a.387.387,0,0,1-.388-.388v-8.264a.387.387,0,0,1,.388-.387h7.082a.387.387,0,0,1,.388.387Zm9.311-16.361a.388.388,0,0,1-.349.219h-2.265a.8.8,0,0,0-.794.793V135.7a.387.387,0,0,1-.387.388H95.441a.387.387,0,0,1-.387-.388v-8.264a1.953,1.953,0,0,0-1.974-1.974H86a1.953,1.953,0,0,0-1.974,1.974v8.652h-8.65a.387.387,0,0,1-.388-.388V120.354a.794.794,0,0,0-.793-.793H72.043a.388.388,0,0,1-.294-.64l13.767-16.006c.011-.013.024-.025.035-.037a2.45,2.45,0,0,1,3.249,0,.43.43,0,0,1,.039.04l6,7.095a.793.793,0,0,0,.877.233.8.8,0,0,0,.521-.743l-.019-4.474a.387.387,0,0,1,.384-.389l2.383-.019a.388.388,0,0,1,.387.388v9.445a.805.805,0,0,0,.173.5l3.188,3.984A.387.387,0,0,1,102.778,119.342Z" transform="translate(-68.677 -100.676)"/><g transform="translate(12.985 10.621)"><path class="c" d="M85.428,124.337a1.31,1.31,0,0,1-1.309-1.309v-8.412a1.31,1.31,0,0,1,1.309-1.309h8.411a1.311,1.311,0,0,1,1.31,1.309v8.412a1.311,1.311,0,0,1-1.31,1.309Zm5.386-4.723a.388.388,0,0,0-.388.388v2.361a.388.388,0,0,0,.388.388h2.361a.388.388,0,0,0,.388-.388V120a.388.388,0,0,0-.388-.388Zm-4.722,0A.388.388,0,0,0,85.7,120v2.361a.387.387,0,0,0,.388.388h2.361a.387.387,0,0,0,.387-.388V120a.388.388,0,0,0-.387-.388Zm4.722-4.723a.388.388,0,0,0-.388.388v2.361a.388.388,0,0,0,.388.388h2.361a.388.388,0,0,0,.388-.388V115.28a.388.388,0,0,0-.388-.388Zm-4.722,0a.388.388,0,0,0-.388.388v2.361a.387.387,0,0,0,.388.388h2.361a.387.387,0,0,0,.387-.388V115.28a.388.388,0,0,0-.387-.388Z" transform="translate(-84.119 -113.306)"/></g><g transform="translate(21.249 29.511)"><rect class="c" width="1.586" height="1.586"/></g></g></g></svg>