<svg xmlns="http://www.w3.org/2000/svg" width="33.712" height="31.479" viewBox="0 0 33.712 31.479"><defs><style>.a{fill:#fff;}.b{fill:#73d7ff;}.c{fill:#003575;}</style></defs><g transform="translate(-1150.63 -1325.869)"><g transform="translate(1150.63 1325.869)"><g transform="translate(12.831 12.892)"><path class="a" d="M61.8,149.13v4.849h4.424v.711" transform="translate(-61.804 -149.13)"/></g><g transform="translate(0.809 10.017)"><rect class="b" width="3.418" height="8.872"/></g><g transform="translate(4.637 0.735)"><path class="a" d="M53.589,148.347H49.335v-6.491l2.82-.986,2.519-4.9.488-5.093,1.784-.246,1.26,1.177.575,4.792.374,2.108,4.883.11.712,1.369-2.525,8.6Z" transform="translate(-49.335 -130.63)"/></g><g transform="translate(0)"><path class="c" d="M60.931,146.869a1.2,1.2,0,0,0-.064-.26.3.3,0,0,1,.119-.358,1.709,1.709,0,0,0,.683-1.852,1.138,1.138,0,0,0-.062-.172.3.3,0,0,1,.088-.359c.84-.67,1.147-1.338.94-2.042a2.073,2.073,0,0,0-.183-.409.3.3,0,0,1,.026-.335,2.079,2.079,0,0,0,.4-1.511c-.014-.15-.02-.213-.759-1.453a.623.623,0,0,0-.532-.3H57.235a.3.3,0,0,1-.3-.278c-.09-1.086-.386-4.662-.4-5.1a3.769,3.769,0,0,0-.3-1.4,3.065,3.065,0,0,0-.607-.91,2.068,2.068,0,0,0-1.5-.615,2.378,2.378,0,0,0-.483.051,2,2,0,0,0-1.553,1.045,2.95,2.95,0,0,0-.156,1.486,3.552,3.552,0,0,1,.012.62c-.005.043-.011.112-.017.2l0,.032c-.327,4.4-1.833,7-4.358,7.524a.277.277,0,0,1-.061.007.3.3,0,0,1-.3-.3v-.127a1.308,1.308,0,0,0-1.3-1.314H43.578a1.308,1.308,0,0,0-1.3,1.314v7.839a1.307,1.307,0,0,0,1.3,1.312H45.91a1.306,1.306,0,0,0,1.3-1.312v-5.829a.3.3,0,0,1,.261-.3c2.329-.329,5.208-2.108,5.7-8.72l.014-.189a4.658,4.658,0,0,0-.007-.848,1.99,1.99,0,0,1,.043-.874c.07-.17.265-.272.67-.353a1.239,1.239,0,0,1,.244-.026.831.831,0,0,1,.612.238,1.822,1.822,0,0,1,.358.54,2.506,2.506,0,0,1,.194.942c.016.6.455,5.794.473,6.016a.623.623,0,0,0,.617.567h4.675a.3.3,0,0,1,.262.15c.117.2.223.388.291.509a.3.3,0,0,1,.037.162.732.732,0,0,1-.168.464l-.081.091a1.885,1.885,0,0,0-.306.413.916.916,0,0,0,.2,1.048.413.413,0,0,1,.03.037c.027.04.058.084.074.1a.3.3,0,0,1,.052.258c-.049.19-.28.436-.689.731a1.314,1.314,0,0,0-.5.63,1.17,1.17,0,0,0,.191,1.007.309.309,0,0,1,.034.083.464.464,0,0,1-.242.5l-.037.017a1.309,1.309,0,0,0-.442.244,1.016,1.016,0,0,0-.246,1.119,2,2,0,0,0,.112.249.3.3,0,0,1,.08.2,2.157,2.157,0,0,1-.049.432.307.307,0,0,1-.147.2,2.734,2.734,0,0,1-1.145.26H51.17a.62.62,0,1,0,0,1.239h9.217A2.65,2.65,0,0,0,60.931,146.869Zm-14.961.793a.3.3,0,0,1-.3.3H43.821a.3.3,0,0,1-.3-.3v-7.381a.3.3,0,0,1,.3-.3h1.845a.3.3,0,0,1,.3.3Z" transform="translate(-42.279 -129.512)"/></g></g><g transform="translate(1157.99 1342.765)"><g transform="translate(21.777 0.743)"><g transform="translate(0)"><rect class="b" width="3.893" height="12.891"/></g></g><g transform="translate(3.41 8.193)"><rect class="a" width="17.893" height="3.144"/></g><g transform="translate(0.765 8.193)"><rect class="b" width="2.071" height="5.44"/></g><g transform="translate(15.314 1.942)"><g transform="translate(0)"><path class="a" d="M81.586,123.573l-3.032,2.907.56,1.984,1.361.225,2.92-2.982v-1.26Z" transform="translate(-78.554 -123.573)"/></g></g><g transform="translate(0 0)"><path class="c" d="M71.293,134.912a.565.565,0,0,0,.565-.565v-1.682a.276.276,0,0,1,.276-.275H88.949a.276.276,0,0,1,.276.275v1.682a.565.565,0,0,0,.565.565h4.2a.565.565,0,0,0,.565-.565V120.895a.565.565,0,0,0-.565-.565h-4.2a.565.565,0,0,0-.565.565v6.726a.277.277,0,0,1-.276.276H68.771a.565.565,0,0,0-.565.565v5.885a.565.565,0,0,0,.565.565Zm-.841-5.885a.276.276,0,0,1,.276.276v4.2a.276.276,0,0,1-.276.276h-.84a.276.276,0,0,1-.276-.276v-4.2a.276.276,0,0,1,.276-.276Zm22.7-7.567a.277.277,0,0,1,.276.276v11.771a.276.276,0,0,1-.276.276H90.63a.276.276,0,0,1-.276-.276V121.736a.276.276,0,0,1,.276-.276Zm-4.2,7.567a.276.276,0,0,1,.276.276v1.682a.277.277,0,0,1-.276.276H72.134a.277.277,0,0,1-.276-.276V129.3a.276.276,0,0,1,.276-.276Zm-3.737-1.13a2.232,2.232,0,0,0,1.561-.643l.011-.012,1.784-1.784a2.231,2.231,0,0,0,.655-1.575v-.027a2.245,2.245,0,0,0-3.832-1.575l-1.784,1.783a2.244,2.244,0,0,0,1.574,3.833h.031Zm1.767-5.144a1.116,1.116,0,0,1,.79,1.905l-1.784,1.784a1.117,1.117,0,1,1-1.578-1.58l1.783-1.783A1.106,1.106,0,0,1,86.98,122.753Z" transform="translate(-68.206 -120.33)"/></g></g></g></svg>