<svg xmlns="http://www.w3.org/2000/svg" width="32.381" height="30.315" viewBox="0 0 32.381 30.315"><defs><style>.a{fill:#fff;}.b{fill:#73d7ff;}.c{fill:#003575;}</style></defs><g transform="translate(-214.5 -103.41)"><g transform="translate(237.95 104.562)"><rect class="a" width="3.925" height="23.811"/></g><g transform="translate(225.509 107.215)"><path class="b" d="M229.459,112.988v9.819l12.441,4.356-.092-18.583Z" transform="translate(-229.459 -108.58)"/></g><g transform="translate(215.608 110.635)"><rect class="a" width="9.51" height="11.715"/></g><g transform="translate(215.392 114.56)"><rect class="b" width="10.117" height="4.008"/></g><g transform="translate(217.288 122.745)"><path class="b" d="M223.287,139.274l-1.815.567h-1.449l-1.357-.759-.378-9.4h5Z" transform="translate(-218.288 -129.682)"/></g><g transform="translate(244.179 107.542)"><path class="c" d="M255.522,110.413a.694.694,0,0,1,0-1.388h1.314a.694.694,0,0,1,0,1.388Z" transform="translate(-254.828 -109.025)"/></g><g transform="translate(244.179 111.675)"><path class="c" d="M255.522,116.028a.694.694,0,0,1,0-1.388h1.314a.694.694,0,0,1,0,1.388Z" transform="translate(-254.828 -114.64)"/></g><g transform="translate(244.179 115.808)"><path class="c" d="M255.522,121.644a.694.694,0,0,1,0-1.388h1.314a.694.694,0,0,1,0,1.388Z" transform="translate(-254.828 -120.256)"/></g><g transform="translate(244.179 119.94)"><path class="c" d="M255.522,127.259a.694.694,0,0,1,0-1.388h1.314a.694.694,0,0,1,0,1.388Z" transform="translate(-254.828 -125.871)"/></g><g transform="translate(244.179 124.072)"><path class="c" d="M255.522,132.874a.694.694,0,0,1,0-1.388h1.314a.694.694,0,0,1,0,1.388Z" transform="translate(-254.828 -131.486)"/></g><g transform="translate(214.5 103.41)"><path class="c" d="M239.989,103.41a2.763,2.763,0,0,0-2.76,2.761v.294a.34.34,0,0,1-.23.321l-10.978,3.764a.682.682,0,0,0-.068.027.438.438,0,0,1-.055.035.338.338,0,0,1-.411-.071,2.767,2.767,0,0,0-2.072-.932H217.3a2.807,2.807,0,0,0-2.8,2.8v8.179a2.81,2.81,0,0,0,1.844,2.622.34.34,0,0,1,.222.319v6.917a3.277,3.277,0,0,0,6.554,0v-2.7a.339.339,0,0,1,.339-.339.361.361,0,0,1,.068.007,4.764,4.764,0,0,0,5.637-3.5.34.34,0,0,1,.328-.254.35.35,0,0,1,.11.018l7.4,2.537a.34.34,0,0,1,.23.321v.294a2.76,2.76,0,1,0,5.52,0V106.171A2.763,2.763,0,0,0,239.989,103.41Zm-24.1,11.719h8.943v2.744h-8.943ZM217.3,111h6.111a1.417,1.417,0,0,1,1.416,1.415v1.329h-8.943v-1.329A1.417,1.417,0,0,1,217.3,111Zm4.428,19.452a1.889,1.889,0,0,1-3.778,0v-6.715a.339.339,0,0,1,.339-.339h3.1a.34.34,0,0,1,.339.339Zm-4.428-8.443a1.417,1.417,0,0,1-1.416-1.415v-1.329h8.943v1.329a1.417,1.417,0,0,1-1.416,1.415Zm10.568,1.467a.864.864,0,0,1-.047.09l-.007.012a3.374,3.374,0,0,1-4.473,2.344.339.339,0,0,1-.225-.32v-1.87a.339.339,0,0,1,.335-.339,2.767,2.767,0,0,0,2.033-.929.34.34,0,0,1,.252-.111.336.336,0,0,1,.16.04.5.5,0,0,1,.055.035.665.665,0,0,0,.065.026l1.651.567a.335.335,0,0,1,.2.183A.34.34,0,0,1,227.872,123.473Zm9.357.88a.339.339,0,0,1-.45.321l-10.221-3.5a.342.342,0,0,1-.089-.046.6.6,0,0,1-.25-.489v-8.265a.606.606,0,0,1,.25-.489.319.319,0,0,1,.089-.046l10.221-3.5a.358.358,0,0,1,.11-.018.341.341,0,0,1,.339.339Zm4.132,2.479a1.372,1.372,0,1,1-2.744,0V106.171a1.372,1.372,0,1,1,2.744,0Z" transform="translate(-214.5 -103.41)"/></g></g></svg>