<svg xmlns="http://www.w3.org/2000/svg" width="44" height="24.347" viewBox="0 0 44 24.347"><defs><style>.a{fill:#73d7ff;}.b{fill:#fff;}.c{fill:#003575;}</style></defs><g transform="translate(-68.206 -120.33)"><rect class="a" width="6.5" height="21.524" transform="translate(69.345 121.57)"/><rect class="b" width="29.875" height="5.25" transform="translate(76.637 134.01)"/><rect class="a" width="3.458" height="9.083" transform="translate(107.47 134.01)"/><path class="b" d="M81.575,123.573l5.063,4.854L85.7,131.74l-2.273.375-4.875-4.979v-2.1Z"/><path class="c" d="M107.052,144.677a.944.944,0,0,1-.943-.943v-2.808a.461.461,0,0,0-.461-.46H77.572a.461.461,0,0,0-.461.46v2.808a.944.944,0,0,1-.943.943H69.149a.944.944,0,0,1-.943-.943V121.273a.944.944,0,0,1,.943-.943h7.019a.944.944,0,0,1,.943.943V132.5a.462.462,0,0,0,.461.461h33.691a.944.944,0,0,1,.943.943v9.826a.944.944,0,0,1-.943.943Zm1.4-9.826a.46.46,0,0,0-.461.46v7.019a.46.46,0,0,0,.461.461h1.4a.46.46,0,0,0,.461-.461v-7.019a.46.46,0,0,0-.461-.46Zm-37.9-12.635a.462.462,0,0,0-.461.461V142.33a.461.461,0,0,0,.461.461h4.212a.46.46,0,0,0,.46-.461V122.677a.461.461,0,0,0-.46-.461Zm7.019,12.635a.461.461,0,0,0-.461.46v2.808a.462.462,0,0,0,.461.461h28.076a.462.462,0,0,0,.461-.461v-2.808a.461.461,0,0,0-.461-.46Zm6.239-1.887A3.727,3.727,0,0,1,81.2,131.89l-.019-.02-2.978-2.979a3.726,3.726,0,0,1-1.094-2.629v-.045a3.749,3.749,0,0,1,6.4-2.63l2.979,2.977a3.747,3.747,0,0,1-2.628,6.4h-.051Zm-2.951-8.588a1.864,1.864,0,0,0-1.319,3.181l2.978,2.979a1.864,1.864,0,1,0,2.635-2.638l-2.977-2.977A1.847,1.847,0,0,0,80.86,124.376Z"/></g></svg>